<svg id="Calque_1" data-name="Calque 1" xmlns="http://www.w3.org/2000/svg" xmlns:xlink="http://www.w3.org/1999/xlink" viewBox="0 0 1920 1080"><defs><style>.cls-1{fill:url(#Dégradé_sans_nom_25);}.cls-2{font-size:90px;font-family:TrebuchetMS, Trebuchet MS;}.cls-2,.cls-3{fill:#3f3d56;}.cls-4{fill:#ff6884;}.cls-5{fill:#f2f2f2;}.cls-6{fill:#9acd32;}.cls-7{fill:#ccc;}.cls-8{fill:#e6e6e6;}.cls-9{fill:#fff;}</style><linearGradient id="Dégradé_sans_nom_25" x1="960" x2="960" y2="1080" gradientUnits="userSpaceOnUse"><stop offset="0" stop-color="#fff"/><stop offset="1" stop-color="#9acd32"/></linearGradient></defs><title>Engagements</title><rect class="cls-1" width="1920" height="1080"/><text class="cls-2" transform="translate(642.05 84.33)">Nos Engagements</text><path class="cls-3" d="M168.42,993.26a14.41,14.41,0,0,0-.15,3.74h90a28.25,28.25,0,0,0,2.12-3.74c11-23.23-7.09-61.88,15.84-119.2,17-42.53,48.81-75.79,63.62-91.29C358,763.71,378.64,746.12,402.55,718c5.18-6.08,10.51-12.67,16-19.87,1.85-2.4,23.15-30.3,21.21-31.17-.91-.4-6.54,5.23-8.45,7.13-16.85,16.74-26.63,24.07-40.66,36.11-8.51,7.31-18.57,16.32-32.69,30.24-36.2,35.65-54.29,53.46-60.59,66.8A311.27,311.27,0,0,1,270.12,854c-8.54,12.21-12.81,18.31-15.15,17.82-6.6-1.41,2.31-51.93,30.3-102.43,4.79-8.6,8.36-14.1,15.15-24.5,11-17,72.44-111.26,117.58-167.71,5.66-7.1,11.08-13.58,16.08-19.26l2.82-3.12c6.3-6.9,11.88-12.36,16.51-15.88,2.46-1.87,8.7-7.17,21.21-17.81,5-4.23,8.6-7.37,11.06-9.66.36-.34.69-.67,1-1,3-2.85,3.81-4.23,3.12-5-1-1-4.85-.44-9.06.65-.46.11-.94.24-1.4.38-4.57,1.24-9.2,2.87-10.75,3.43-14.18,5-28,14-40.84,24.65-4.76,3.94-9.33,8.1-13.75,12.38a370.18,370.18,0,0,0-36.06,41.19c-11.51,15.23-18.41,26.43-18.41,26.43C327.35,666.82,291.69,726.5,289.81,726c-2.06-.56,37.48-74.84,49-115.19,3.85-13.52,4.55-23.22-.51-25.09a3.28,3.28,0,0,0-.58-.18,6.43,6.43,0,0,0-1.91-.16,43.66,43.66,0,0,0-9.63.34c-6.15,1-13.15,13.56-20,31.21-17.72,45.52-34.56,124.65-34.56,124.65-16.85,79.16-42.42,143.23-48.48,142.51-3.36-.4,1.46-20.28-3-53.44C217,807.4,213.41,808.11,202,766.07q-27.27-100-27.27-100.2a27.57,27.57,0,0,0-.24-7.17c-.61-3.19-2.15-6.53-5.82-8.42-5.57-2.9-14.54-1.65-18.18,0-2.9,1.34-4.39,3.79-4.72,7.3-2,22.14,41.26,86.31,56.23,173.06,7.45,43.22,11.54,66.8,0,98-11.42,30.9-31.33,50.59-33.54,64.64Z" transform="translate(0)"/><ellipse class="cls-4" cx="934.87" cy="575.69" rx="44.44" ry="31.94"/><path class="cls-3" d="M1135.21,992.79a16.09,16.09,0,0,1,.18,4.35H1028.52a31.67,31.67,0,0,1-2.52-4.35c-13.07-27,8.42-71.89-18.83-138.49-20.23-49.41-58-88.07-75.59-106.07C909.94,726.08,885.43,705.64,857,673c-6.16-7.06-12.49-14.72-19-23.07-2.2-2.8-27.51-35.22-25.2-36.22,1.08-.47,7.77,6.07,10,8.27,20,19.46,31.64,28,48.31,42,10.11,8.48,22.07,19,38.84,35.13,43,41.42,64.51,62.12,72,77.62a360.86,360.86,0,0,0,32.4,54.33c10.15,14.17,15.23,21.26,18,20.69,7.85-1.63-2.74-60.33-36-119-5.69-10-9.93-16.37-18-28.45-13.1-19.72-86.06-129.28-139.7-194.87-6.73-8.25-13.18-15.78-19.11-22.38-1.16-1.24-2.27-2.46-3.35-3.62-7.49-8-14.11-14.36-19.62-18.45-2.92-2.17-10.33-8.33-25.2-20.69-5.9-4.92-10.22-8.57-13.14-11.23-.43-.39-.83-.78-1.15-1.12-3.53-3.31-4.54-4.91-3.71-5.76,1.19-1.22,5.76-.52,10.77.75.54.13,1.11.28,1.65.44,5.44,1.44,10.94,3.33,12.78,4,16.85,5.82,33.3,16.25,48.52,28.64,5.66,4.58,11.09,9.42,16.35,14.38a432.59,432.59,0,0,1,42.83,47.87c13.68,17.69,21.89,30.71,21.89,30.71,38.19,60.61,80.56,130,82.79,129.35,2.45-.64-44.53-87-58.2-133.83-4.58-15.7-5.4-27,.61-29.16a5.49,5.49,0,0,1,.68-.2,7.3,7.3,0,0,1,2.27-.18,53,53,0,0,1,11.45.38c7.3,1.14,15.62,15.76,23.72,36.28,21.06,52.88,41.07,144.83,41.07,144.83,20,92,50.4,166.4,57.6,165.57,4-.46-1.73-23.57,3.6-62.09,3.74-27,8-26.18,21.59-75q32.4-116.22,32.4-116.42a31.14,31.14,0,0,1,.29-8.33c.72-3.7,2.56-7.58,6.91-9.78,6.62-3.36,17.28-1.91,21.6,0,3.45,1.55,5.22,4.4,5.61,8.49,2.38,25.71-49,100.28-66.81,201.07-8.85,50.22-13.71,77.62,0,113.84,13.58,35.91,37.23,58.78,39.85,75.1Z" transform="translate(0)"/><path class="cls-5" d="M1634.29,580.31c10.43-13.8,17.21-27.33,19.63-39.81a80.7,80.7,0,0,0-25.71,1.56c12.87-15.41,21.46-34.39,10.28-44.13-7-5.37-16.14-9.39-26.9-12.06,3.48-11.57,3.52-22.41-.44-31.94-18.4-44.37-140.14,35.57-217.83,1-32.58-14.5-67.64,3.77-96,33.15,3.9,9.77,11.09,18.85,21.19,26a115.64,115.64,0,0,1-36.8-7.9c-30.39,39.19-48.75,88.25-39.55,110.43,6,14.39,20.25,24.06,40.3,29-3.48,11.57,71.68,94.63,85.53,94.54,36.82-.23,48.26-60.33,72.84,16.69L1386,997.14h79.31V749.31c22.06-24.49,44.86-8.11,97.39-27.17,161.14-58.46,92.44-122.89,71.55-141.83Z" transform="translate(0)"/><path class="cls-5" d="M889.83,474.07c13.09-17.31,21.6-34.29,24.64-49.95-12.15-1-22.88-.31-32.26,1.95,16.14-19.34,26.92-43.15,12.89-55.37-8.83-6.74-20.25-11.79-33.75-15.14,4.37-14.52,4.42-28.12-.56-40.08-23.08-55.68-175.85,44.64-273.35,1.22-40.87-18.2-84.87,4.73-120.51,41.6,4.89,12.26,13.92,23.65,26.59,32.6A145.27,145.27,0,0,1,447.34,381c-38.13,49.17-61.18,110.74-49.64,138.57,7.5,18.06,25.43,30.19,50.59,36.44-4.37,14.52,89.94,118.75,107.32,118.64,46.2-.29,60.57-75.71,91.41,20.94L578.31,997.14h99.52v-311c27.69-30.73,56.3-10.17,122.22-34.09C1002.25,578.69,916.05,497.83,889.83,474.07Z" transform="translate(0)"/><path class="cls-6" d="M475.5,980.75c2.92.13,4.54-2.48,2.33-4l-.22-.63.08-.15c3-5.07,13-5,15.94,0,2.6,4.51,5.92,9,6.74,13.79a13.43,13.43,0,0,1-.45,6.32,56.89,56.89,0,0,0,9.32-30.58,51.67,51.67,0,0,0-.62-7.93,52.94,52.94,0,0,0-1.41-6.42c-3.26-11.49-10.34-22.43-20.55-31.57a24.84,24.84,0,0,1-11.47-8.55,12.75,12.75,0,0,1-1.91-4.13c.56,0,2.11-6.06,1.68-6.44.78-.85,2.18-1.27,3-2.1,4.23-4.12,10-3.4,13.09,2.2,6.5,2.36,6.56,6.26,2.58,10-2.54,2.39-2.89,5.62-5.11,8.18l.7.63a77.5,77.5,0,0,1,10.88,12.39,23.21,23.21,0,0,1,2.59-14.47c2.54-4.41,7.37-8.11,11.54-11.93,4.67-4.28,14.27-2.54,15.41,2.84.06.27.1.52.14.77-.67.27-1.33.56-2,.86-3.24,1.57-2.13,5.18,1.73,5.6l.29,0a24,24,0,0,1-1.14,4.66c5.24,14.59-6.09,19.9-22.28,20.13l-.82.84a59,59,0,0,1,3.7,9.72,55.54,55.54,0,0,1,1.81,9.21,52.19,52.19,0,0,1-.07,11.72l0-.14c1.16-4.29,4.4-8.29,9.1-11.07,7-4.14,16.91-5.66,24.48-9,3.64-1.6,8.3.47,7.67,3.5l0,.15c-1.12.33-2.22.71-3.28,1.14-.67.27-1.32.56-2,.86-3.24,1.57-2.13,5.18,1.73,5.6l.29,0,.19,0a32.43,32.43,0,0,1-8,9c-3.28,12.73-17.37,13.94-32.44,10.23h0a62.76,62.76,0,0,1-7.15,15H476.14c-.1-.21-.18-.42-.26-.62a39.74,39.74,0,0,0,7.07-.3l-5.69-5-.12-.1-2.89-2.56h0a22.41,22.41,0,0,1,1.25-7.78Z" transform="translate(0)"/><path class="cls-6" d="M371.1,975.29c3.91.17,6.07-3.31,3.11-5.34l-.29-.84a2.12,2.12,0,0,0,.11-.21c4-6.76,17.33-6.71,21.25.06,3.47,6,7.89,12,9,18.4a17.84,17.84,0,0,1-.59,8.42C411.81,983,416.09,969,416.09,955a68.23,68.23,0,0,0-.82-10.57,70.88,70.88,0,0,0-1.88-8.57C409,920.55,399.6,906,386,893.78c-6.54-2.57-12-6.59-15.29-11.4a16.76,16.76,0,0,1-2.55-5.51c.74.07,2.81-8.08,2.25-8.58,1-1.13,2.89-1.7,4-2.8,5.64-5.49,13.4-4.53,17.46,2.93,8.65,3.14,8.74,8.35,3.43,13.36-3.38,3.19-3.85,7.5-6.81,10.91l.92.83a102.55,102.55,0,0,1,14.52,16.53,30.92,30.92,0,0,1,3.45-19.3c3.32-5.75,9.55-10.59,15-15.57,6.58-6,19.92-3.27,21.07,4.31,0,0,0,.11,0,.17-.78.31-1.55.65-2.3,1-4.46,2.11-3,7.06,2.31,7.64h.08a30.39,30.39,0,0,1-1.53,6.22c7,19.44-8.1,26.52-29.66,26.84l-1.12,1.15a77.87,77.87,0,0,1,4.92,12.92,74.18,74.18,0,0,1,2.42,12.29,69.82,69.82,0,0,1-.1,15.63l0-.19c1.55-5.72,5.87-11.06,12.14-14.76,9.35-5.52,22.55-7.55,32.63-12,4.85-2.14,11.07.62,10.23,4.66l-.05.2c-1.5.44-3,.94-4.38,1.51q-1.17.48-2.31,1c-4.46,2.11-3,7.06,2.32,7.64h.08l.24,0a42.92,42.92,0,0,1-10.65,12c-4.38,17-23.16,18.58-43.26,13.64h0a84.69,84.69,0,0,1-9.53,20H372c-.12-.27-.23-.55-.34-.83a53.86,53.86,0,0,0,9.42-.4l-7.58-6.7-.16-.13-3.86-3.41h0a30,30,0,0,1,1.66-10.37Z" transform="translate(0)"/><path class="cls-6" d="M812.21,980.75c2.93.13,4.54-2.48,2.33-4l-.22-.63.09-.15c3-5.07,13-5,15.93,0,2.6,4.51,5.92,9,6.74,13.79a13.43,13.43,0,0,1-.45,6.32A56.89,56.89,0,0,0,846,965.54a50.45,50.45,0,0,0-.62-7.93,51.11,51.11,0,0,0-1.41-6.42c-3.26-11.49-10.34-22.43-20.55-31.57a24.89,24.89,0,0,1-11.47-8.55,12.75,12.75,0,0,1-1.91-4.13c.56,0,2.11-6.06,1.69-6.44.77-.85,2.17-1.27,3-2.1,4.22-4.12,10-3.4,13.09,2.2,6.49,2.36,6.55,6.26,2.57,10-2.54,2.39-2.89,5.62-5.11,8.18l.7.63a77.5,77.5,0,0,1,10.88,12.39,23.21,23.21,0,0,1,2.59-14.47c2.55-4.41,7.38-8.11,11.54-11.93,4.67-4.28,14.27-2.54,15.41,2.84.06.27.1.52.14.77-.67.27-1.32.56-2,.86-3.24,1.57-2.13,5.18,1.73,5.6l.29,0a23.3,23.3,0,0,1-1.14,4.66c5.24,14.59-6.09,19.9-22.28,20.13l-.82.84a59,59,0,0,1,3.7,9.72,55.54,55.54,0,0,1,1.81,9.21,52.19,52.19,0,0,1-.07,11.72l0-.14c1.16-4.29,4.4-8.29,9.1-11.07,7-4.14,16.92-5.66,24.48-9,3.64-1.6,8.3.47,7.67,3.5l0,.15a34.44,34.44,0,0,0-3.29,1.14c-.67.27-1.32.56-2,.86-3.24,1.57-2.13,5.18,1.73,5.6l.29,0,.19,0a32.39,32.39,0,0,1-8,9c-3.29,12.73-17.37,13.94-32.45,10.23h0a63.53,63.53,0,0,1-7.15,15H812.85l-.26-.62a39.74,39.74,0,0,0,7.07-.3l-5.69-5-.12-.1L811,988.53h0a22.41,22.41,0,0,1,1.25-7.78Z" transform="translate(0)"/><path class="cls-6" d="M898.63,974.51c4,.18,6.22-3.4,3.19-5.48l-.31-.87.12-.2c4.06-7,17.79-6.9,21.81.06,3.57,6.17,8.11,12.35,9.23,18.88a18.3,18.3,0,0,1-.62,8.65c8.36-13.12,12.76-27.45,12.76-41.86a70.71,70.71,0,0,0-.84-10.85A77.27,77.27,0,0,0,942,934c-4.48-15.72-14.16-30.69-28.13-43.2-6.72-2.64-12.32-6.76-15.7-11.71a17.13,17.13,0,0,1-2.62-5.65c.77.07,2.88-8.3,2.31-8.81,1.06-1.16,3-1.74,4.13-2.87,5.79-5.64,13.76-4.66,17.92,3,8.89,3.22,9,8.57,3.52,13.71-3.47,3.27-4,7.7-7,11.2l.95.86a105.15,105.15,0,0,1,14.9,17,31.79,31.79,0,0,1,3.54-19.81c3.39-5.88,9.75-10.83,15.35-15.91,6.72-6.11,20.51-3.44,21.69,4.3,0,.07,0,.15,0,.22-.84.34-1.65.7-2.45,1.07-4.53,2.16-3,7.22,2.41,7.81l.12,0a32.11,32.11,0,0,1-1.56,6.38c7.18,20-8.32,27.23-30.46,27.56l-1.45.53a81.22,81.22,0,0,1,5.36,13.91,75.69,75.69,0,0,1,2.48,12.62,71,71,0,0,1-.1,16l0-.19c1.59-5.87,6-11.35,12.46-15.15,9.6-5.66,23.15-7.75,33.5-12.3,5-2.2,11.37.64,10.5,4.79,0,.06,0,.13,0,.2q-2.31.68-4.49,1.55c-.83.34-1.65.7-2.44,1.08-4.54,2.16-3,7.21,2.4,7.81h.12l.26,0a44.18,44.18,0,0,1-10.94,12.31c-4.49,17.42-23.78,19.07-44.41,13.73h0a88.43,88.43,0,0,1-9.78,21h-35a6.86,6.86,0,0,0-.35-1,55.71,55.71,0,0,0,9.67-.42L901,988.8l-.16-.13-4-3.51h0a31,31,0,0,1,1.7-10.65Z" transform="translate(0)"/><path class="cls-6" d="M265.4,980.75c2.93.13,4.55-2.48,2.33-4l-.22-.63.09-.15c3-5.07,13-5,15.93,0,2.6,4.51,5.92,9,6.74,13.79a13.31,13.31,0,0,1-.45,6.32,56.8,56.8,0,0,0,9.32-30.58,51.66,51.66,0,0,0-.61-7.93,54.91,54.91,0,0,0-1.41-6.42c-3.27-11.49-10.35-22.43-20.55-31.57a24.79,24.79,0,0,1-11.47-8.55,12.57,12.57,0,0,1-1.92-4.13c.56,0,2.11-6.06,1.69-6.44.78-.85,2.17-1.27,3-2.1,4.22-4.12,10.05-3.4,13.09,2.2,6.49,2.36,6.56,6.26,2.57,10-2.53,2.39-2.88,5.62-5.11,8.18l.7.63A77.5,77.5,0,0,1,290,931.82a23.28,23.28,0,0,1,2.59-14.47c2.48-4.3,7.12-7.91,11.21-11.63,4.92-4.46,15-2.51,15.85,3.14l0,.17c-.67.27-1.32.56-2,.86-3.24,1.57-2.13,5.18,1.73,5.6l.29,0a23.3,23.3,0,0,1-1.14,4.66c5.25,14.59-6.09,19.9-22.27,20.13l-.83.84a58.07,58.07,0,0,1,3.7,9.72,54.53,54.53,0,0,1,1.81,9.21,51.61,51.61,0,0,1-.07,11.72l0-.14c1.16-4.29,4.4-8.29,9.11-11.07,7-4.14,16.91-5.66,24.47-9,3.64-1.6,8.3.47,7.67,3.5l0,.15a34.44,34.44,0,0,0-3.29,1.14c-.67.27-1.32.56-2,.86-3.24,1.57-2.12,5.18,1.73,5.6l.3,0,.18,0a32.23,32.23,0,0,1-8,9c-3.28,12.73-17.37,13.94-32.44,10.23h0a63.53,63.53,0,0,1-7.15,15H266c-.09-.21-.17-.42-.26-.62a39.74,39.74,0,0,0,7.07-.3c-1.9-1.67-3.79-3.36-5.68-5a.4.4,0,0,1-.12-.1c-1-.85-1.94-1.7-2.9-2.56h0a22.41,22.41,0,0,1,1.25-7.78Z" transform="translate(0)"/><path class="cls-7" d="M0,996.21c0,.66.74,1.19,1.66.79H1091.5c.92.4,1.66-.13,1.66-.79s-.74-1.19-1.66-1.21H1.66C.74,995,0,995.55,0,996.21Z" transform="translate(0)"/><path class="cls-8" d="M1904,995.57h0c0,.47-.52.84-1.17,1.43H1092.46v-2h810.33C1903.44,994.73,1904,995.11,1904,995.57Z" transform="translate(0)"/><path class="cls-6" d="M1742.27,813.88c-3.35-1.26-8.64,4-11.5,2.79s1.41-6.9-.19-14.84c-.29-1.43-2.11-10.47-7.18-11.26-9.6-1.5-22.4,27.92-36.87,26.56-3.18-.3-6.77-2.11-16.61-3.28-3.92-.47-6.08-.5-7.34.43-1.79,1.31-.21,3.42,1,8.43,1.75,7.51-.58,8,1.55,13.71,1.57,4.2,3.68,6.12,2.29,7.29-2,1.66-7.45-1.12-10.26.6s-1,7,1.18,10.54c4.16,6.67,10.8,9.35,16.22,12.85A42.51,42.51,0,0,1,1691.79,890l32,107.1c-5.88-22.28-20.53-84-24.63-107.52-1.18-6.8-2.07-13.82,3.73-19.32,5.6-5.3,16.73-8.55,27.68-16.47,1.28-.93,4.79-3.53,3.81-5.53-.82-1.65-4-1.37-4.76-2.9-1.06-2.06,3.74-4.22,7.85-8.95a25.48,25.48,0,0,0,4.92-8.78c.28-.75,4.38-12.1-.08-13.79Z" transform="translate(0)"/><path class="cls-6" d="M1611.21,935.77c-1.83.82.26,4.2-1.41,4.86s-4.3-2.49-10.19-4.22c-1.06-.31-7.76-2.27-9.76-.71-3.79,2.95,12.6,15.95,7.5,20.67-1.12,1-3.4,1.78-7,4.91-1.44,1.25-2.09,2-1.82,2.71.38,1,2.28,1.07,6,2.1,5.63,1.55,5.33,2.52,9.81,3.41,3.33.66,5.24.47,5.64,1.29.57,1.17-2.91,2.31-2.55,3.8s4.47,2.38,7.54,2.62c5.76.46,9.5-1.11,13.46-2,4.3-1,10.86-1.62,20.24.35L1731,995.18c-16.9-4.36-63.28-17-80.53-22.34-5-1.54-10-3.25-12.11-6.89s-1-8.37-3.26-14.51c-.27-.72-1-2.72-2.68-2.94-1.36-.19-2.08,1-3.36.84-1.71-.22-1.8-2.54-3.84-5.35a19,19,0,0,0-4.58-4.27c-.43-.32-7-5-9.44-4Z" transform="translate(0)"/><path class="cls-6" d="M1652.9,925.45l-7.19-6.6,0-.76a12,12,0,0,0-2.65-8.8c-.31-.36-.65-.72-1-1.08a11.76,11.76,0,0,1-3.57-6c-.27-1.53-.54-5.23,2.91-6.29a5.8,5.8,0,0,1,2.58-.18c0-.11,0-.23,0-.35a6.8,6.8,0,0,1,.81-3.1,8.57,8.57,0,0,0,.79-2.47c.1-.55.14-1,.18-1.4a3.6,3.6,0,0,1,2.24-3.45c2.07-.82,4.15-.09,5.53.39a31.15,31.15,0,0,1,4.84,2.14,9.75,9.75,0,0,0,.9.44c1.23.4,6-2.57,7.74-3.69,4-2.51,7.46-4.68,10.78-3.36,2.38.94,3.18,3.23,2.42,7a10.62,10.62,0,0,1-1.15,3,4.89,4.89,0,0,1,2.87.79h0c2.07,1.46,1.49,4.09-1.72,7.84a16,16,0,0,1-3.81,3.42,24.25,24.25,0,0,1-2.6,1.39,2.16,2.16,0,0,1,.5,1.23c.11,1.44-1.15,2.71-3.82,3.72a58.07,58.07,0,0,1-7.91,2.36,25.1,25.1,0,0,0-5,1.52c-2.14,1.13-2.76,3.18-3.35,5.76l-1.42,6.5Z" transform="translate(0)"/><path class="cls-6" d="M1621.8,880.94l-7.06,6.67-1,.16c-4.79.75-8.55,2.12-11.16,4.07-.42.31-.81.64-1.21,1a18.44,18.44,0,0,1-7.12,4c-2,.58-6.9,1.71-9.19-.42a2.55,2.55,0,0,1-.9-1.75l-.48.08a17.37,17.37,0,0,1-4.38.23,19.72,19.72,0,0,0-3.52.07c-.76.07-1.4.16-1.93.23-1.62.22-3.63.43-5.21-.68s-1.18-2.86-.88-3.94a16.12,16.12,0,0,1,1.65-3.91,5.47,5.47,0,0,0,.37-.74c.22-1-5-3.49-6.93-4.44-4.39-2.15-8.19-4-7.26-6.65.66-1.89,3.54-3,8.78-3.45a27,27,0,0,1,4.35,0,2.11,2.11,0,0,1,.33-2.19h0c1.43-1.81,5.12-2.08,11-.79a23.47,23.47,0,0,1,5.58,1.78,24.11,24.11,0,0,1,2.52,1.45,4.35,4.35,0,0,1,1.53-.66,7,7,0,0,1,6,1.72,37.4,37.4,0,0,1,5.18,4.9,17.12,17.12,0,0,0,3.31,3.06c2.05,1.2,5,1.11,8.6.87l9.11-.67Z" transform="translate(0)"/><path class="cls-6" d="M1598.75,862.3l-7.19-6.6,0-.76a12,12,0,0,0-2.65-8.8c-.31-.36-.65-.72-1-1.08a11.69,11.69,0,0,1-3.57-6c-.28-1.53-.55-5.23,2.91-6.29a5.8,5.8,0,0,1,2.58-.18v-.35a6.93,6.93,0,0,1,.81-3.1,8.22,8.22,0,0,0,.8-2.47c.09-.55.14-1,.17-1.4a3.63,3.63,0,0,1,2.25-3.45c2.07-.82,4.15-.09,5.52.39a30.93,30.93,0,0,1,4.85,2.14c.35.18.74.39.89.44,1.24.4,6-2.57,7.74-3.69,4-2.51,7.47-4.68,10.79-3.36,2.38.94,3.17,3.23,2.41,7a10.62,10.62,0,0,1-1.14,3,4.84,4.84,0,0,1,2.86.79h0c2.08,1.46,1.5,4.09-1.71,7.84a15.86,15.86,0,0,1-3.82,3.42,24.18,24.18,0,0,1-2.59,1.39,2.3,2.3,0,0,1,.5,1.23c.11,1.44-1.15,2.71-3.83,3.72a57.24,57.24,0,0,1-7.91,2.36,25.32,25.32,0,0,0-5,1.52c-2.13,1.13-2.75,3.18-3.35,5.76l-1.41,6.5Z" transform="translate(0)"/><path class="cls-6" d="M1727,995.48l-2.87,0-2-1.49,2,1.49-2.24,1.27c-.18-.14-.63-.46-1.32-1a355.66,355.66,0,0,1-31.16-24.88,363.35,363.35,0,0,1-31-31c-9.6-10.83-16-19.42-21.1-26.33-3.86-5.21-7.43-10.22-10.9-15.1-9.28-13-18-25.36-30.16-37.93a51.77,51.77,0,0,0-18.75-12.9,69.13,69.13,0,0,0-20.1-4.67l.69-4.09a76.25,76.25,0,0,1,22.24,5.18,56.81,56.81,0,0,1,20.64,14.14c12.33,12.79,21.18,25.23,30.54,38.39,3.46,4.87,7,9.86,10.86,15,5.08,6.84,11.4,15.35,20.87,26a363.22,363.22,0,0,0,30.66,30.63,354,354,0,0,0,30.73,24.54c2,1.41,2.42,1.71,2.41,2.63Z" transform="translate(0)"/><path class="cls-6" d="M1553.15,852.59l-.62.25c-4.29,1.68-9.68,1.6-16-.24-3-.87-5.34-2.31-10.07-5.19a64.53,64.53,0,0,1-8.47-6.25c-2.66-2.31-3.51-3.4-3.61-4.64a5.08,5.08,0,0,1,1.5-3.78,2.1,2.1,0,0,1-.69-1.12c-.43-1.83,2-2.62,3.23-3.06a15.36,15.36,0,0,0,2.26-.87,6,6,0,0,0,2.38-2.06,12.69,12.69,0,0,1,3.1-3,20.31,20.31,0,0,1,8-3c6.37-1.07,11.5.73,17.44,2.81a47.72,47.72,0,0,1,9.68,4.81c3.1,2,3.9,3.19,4.31,4.14.83,1.94.24,3.53-1.55,7.24a47.35,47.35,0,0,1-3.84,7.22c-2.43,3.24-4,5.27-7.1,6.67Z" transform="translate(0)"/><polygon class="cls-3" points="1850.73 823.4 1853.52 823.36 1858.84 997.1 1856.05 997.14 1850.73 823.4"/><path class="cls-3" d="M1853.58,900.28c-.26-.61-6-15.26,6.47-29.67l2.36,1.06c-11.81,13.62-6.22,27.91-6.16,28.05Z" transform="translate(0)"/><path class="cls-6" d="M1861,871.73s-3.79-18.66,31.19-23.78c7.29-1.07,14.14-1.79,20.42-2.28,7.41-.57,10.31,6.72,3.61,9.08-9.7,3.41-18.82,7.71-23.58,12.8C1879.54,881.59,1861,871.73,1861,871.73Z" transform="translate(0)"/><path class="cls-3" d="M1857.17,954.23l-2.67-.56c.06-.14,5.65-14.43-6.16-28l2.36-1.06C1863.19,939,1857.43,953.62,1857.17,954.23Z" transform="translate(0)"/><path class="cls-6" d="M1849.73,925.67s3.79-18.65-31.19-23.77c-7.29-1.07-14.14-1.8-20.42-2.28-7.41-.58-10.31,6.72-3.61,9.07,9.7,3.42,18.82,7.71,23.58,12.81C1831.21,935.54,1849.73,925.67,1849.73,925.67Z" transform="translate(0)"/><path class="cls-6" d="M1898.42,799.24c7-1.34,13.63-3.66,13.41-6-.26-2.73-10-4.56-18.47-4.84,6.36-3.58,12.2-8.53,10.42-10.76-1.65-2.06-9.29-1.26-16.35.55,4.18-4.29,7.11-9.12,4.88-10.78-2.79-2.06-12.67,1.5-19.41,5.43,1.31-6.12.65-13.85-3.17-14.55-3.2-.59-7.73,3.91-10.84,8.81-1.37-5.14-4.15-10-7.36-10-4.57,0-8.27,9.9-8.27,16.35,0,.37,0,.71,0,1-.46-.39-1-.78-1.59-1.2-6.44-4.5-18.9-9.49-22.09-7.13-2.23,1.65.7,6.49,4.88,10.78-7.06-1.82-14.7-2.61-16.34-.56-2.21,2.77,7.23,9.66,14.9,13-.46,0-1-.08-1.46-.1-9-.44-23,1.54-23.27,4.82-.22,2.3,6.37,4.62,13.41,6-7,1.89-13.56,4.83-13,7.17.73,2.83,11.73,3.82,20.38,3.24-6.46,4.46-13.47,12.44-10.54,14.78,2.14,1.72,9.05-.06,15.29-2.76-3,4.94-4.62,10.36-1.88,11.68,3.62,1.74,13.56-4.32,18.8-9.54-.53,6.39,1.59,15.16,5.81,15.5,3.19.26,6.72-4.36,8.89-9.35,2.32,5.12,6.11,10,9.38,9.63,4.25-.41,6.1-9.4,5.31-15.79,5.4,5,14.5,10.35,17.93,8.7,2.74-1.32,1.12-6.74-1.88-11.68,6.24,2.7,13.15,4.48,15.29,2.76,2.93-2.34-4.08-10.32-10.55-14.78,8.66.58,19.66-.41,20.38-3.24C1912,804.08,1905.43,801.13,1898.42,799.24Zm-37.92,18a13.5,13.5,0,0,0-4.72,1.08c-1.34-1-3.29-1.24-5.46-1.42-2.44-.2-4.64-.22-6.33.79-.62-1.23-2.13-2.11-3.9-3a12.72,12.72,0,0,0-4.53-1.44c-.12-1.35-1.31-2.5-2.77-3.67a13,13,0,0,0-2.9-1.86c1.49-1.3,1.32-2.95.86-4.76a6.46,6.46,0,0,0-1.72-3.35,5.24,5.24,0,0,0,1.73-4c.17-1.71.1-3.26-1.28-4.42,3.56.33,5.27-1.27,6.86-3.26a6.39,6.39,0,0,0,1.7-3.34,9.86,9.86,0,0,0,4.9-2.24,7.88,7.88,0,0,0,2.83-3c1.49.9,3.52,1,5.76,1s4.18-.13,5.65-1a12.84,12.84,0,0,0,4.53,1.46,15.25,15.25,0,0,0,4.73.31,13.33,13.33,0,0,0,7.45,4.69,6.42,6.42,0,0,0,1.7,3.35,8,8,0,0,0,3.9,3,7.37,7.37,0,0,0-.09,2.54,5.27,5.27,0,0,0,1.72,4,6.45,6.45,0,0,0-1.71,3.34c-.46,1.81-.63,3.46.86,4.76a13.09,13.09,0,0,0-2.9,1.86c-1.46,1.17-2.65,2.32-2.77,3.67a12.72,12.72,0,0,0-4.53,1.44c-2.08,1-3.8,2-4.14,3.64a13.19,13.19,0,0,0-5.43-.28Z" transform="translate(0)"/><ellipse class="cls-3" cx="1855.67" cy="799.17" rx="29.55" ry="21.24"/><polygon class="cls-3" points="1246.46 899.41 1249.25 899.37 1252.24 997.1 1249.46 997.14 1246.46 899.41"/><path class="cls-3" d="M1248.09,942.77c-.15-.35-3.46-8.78,3.7-17l2.37,1.06a15.72,15.72,0,0,0-3.4,15.42Z" transform="translate(0)"/><path class="cls-6" d="M1252.86,926.58s-2.14-10.49,17.54-13.37c4.1-.6,8-1,11.49-1.28,4.17-.32,5.8,3.78,2,5.1-5.46,1.92-10.59,4.34-13.26,7.2C1263.28,932.13,1252.86,926.58,1252.86,926.58Z" transform="translate(0)"/><path class="cls-3" d="M1251.28,973.12l-2.67-.56a15.74,15.74,0,0,0-3.4-15.43l2.36-1.06C1254.74,964.34,1251.42,972.76,1251.28,973.12Z" transform="translate(0)"/><path class="cls-6" d="M1246.51,956.93s2.13-10.49-17.55-13.37c-4.1-.6-8-1-11.48-1.29-4.17-.32-5.8,3.78-2,5.11,5.45,1.92,10.59,4.34,13.26,7.2C1236.09,962.48,1246.51,956.93,1246.51,956.93Z" transform="translate(0)"/><path class="cls-6" d="M1273.9,885.81c4-.75,7.66-2.06,7.54-3.35-.15-1.54-5.65-2.57-10.39-2.73,3.58-2,6.86-4.79,5.86-6.05s-5.23-.71-9.19.31c2.34-2.41,4-5.13,2.74-6.06-1.57-1.16-7.13.84-10.92,3.05.74-3.44.37-7.79-1.78-8.18-1.8-.33-4.35,2.2-6.1,5-.77-2.89-2.33-5.63-4.14-5.63-2.57,0-4.65,5.57-4.65,9.2,0,.2,0,.39,0,.58-.26-.22-.56-.44-.89-.68-3.62-2.52-10.64-5.33-12.43-4-1.25.93.4,3.65,2.74,6.07-4-1-8.26-1.47-9.19-.31-1.24,1.55,4.07,5.43,8.39,7.31l-.83-.06c-5-.24-12.91.87-13.08,2.72-.13,1.29,3.58,2.6,7.54,3.35-3.94,1.06-7.63,2.72-7.29,4,.4,1.59,6.59,2.15,11.46,1.82-3.64,2.51-7.58,7-5.93,8.32,1.2,1,5.09,0,8.6-1.55-1.69,2.77-2.6,5.83-1.06,6.57,2,1,7.63-2.43,10.58-5.37-.3,3.59.89,8.52,3.26,8.72,1.8.15,3.78-2.45,5-5.26,1.3,2.88,3.43,5.6,5.27,5.42,2.39-.24,3.43-5.29,3-8.89,3,2.82,8.15,5.83,10.08,4.9,1.55-.74.63-3.8-1-6.57,3.51,1.52,7.39,2.52,8.6,1.55,1.64-1.31-2.3-5.81-5.94-8.31,4.87.32,11.06-.23,11.47-1.83.33-1.31-3.35-3-7.3-4ZM1252.57,896a7.73,7.73,0,0,0-2.66.6,6.33,6.33,0,0,0-3.07-.8,6,6,0,0,0-3.56.45,4.55,4.55,0,0,0-2.19-1.67,7.42,7.42,0,0,0-2.55-.81c-.07-.76-.74-1.4-1.56-2.06a7.4,7.4,0,0,0-1.63-1c.84-.73.74-1.66.48-2.68a3.57,3.57,0,0,0-1-1.88,3,3,0,0,0,1-2.24,2.61,2.61,0,0,0-.72-2.48,4,4,0,0,0,3.86-1.84,3.58,3.58,0,0,0,1-1.88,5.57,5.57,0,0,0,2.76-1.26,4.47,4.47,0,0,0,1.59-1.69,9.4,9.4,0,0,0,6.42,0,7.15,7.15,0,0,0,2.55.82,8.48,8.48,0,0,0,2.66.18,7.44,7.44,0,0,0,4.19,2.64,3.58,3.58,0,0,0,1,1.88,4.63,4.63,0,0,0,2.2,1.7,3.93,3.93,0,0,0,0,1.42,3,3,0,0,0,1,2.24,3.7,3.7,0,0,0-1,1.88c-.26,1-.35,1.95.49,2.69a6.92,6.92,0,0,0-1.63,1c-.83.66-1.5,1.3-1.56,2.06a7.31,7.31,0,0,0-2.55.82c-1.17.56-2.14,1.14-2.33,2A7.42,7.42,0,0,0,1252.57,896Z" transform="translate(0)"/><ellipse class="cls-3" cx="1249.85" cy="885.77" rx="16.62" ry="11.95"/><path class="cls-3" d="M1384.65,909.23V870.05c7.34-2.17,12.52-7.35,12.52-13.41s-5.18-11.25-12.52-13.41V826.81c0-1.72-1.61-3.31-4-3.61-3.08-.4-5.77,1.29-5.77,3.44V842c-195.86,5-390.1,9.79-492.55,0V826.81c0-1.72-1.61-3.31-4-3.61-3.09-.4-5.78,1.29-5.78,3.44v15.5H382.86V826.81c0-1.72-1.61-3.31-4-3.61-3.09-.4-5.78,1.29-5.78,3.44v16.22c-8.07,1.89-13.91,7.34-13.91,13.78s5.84,11.88,13.91,13.78v38.44c-8.07,1.89-13.91,7.34-13.91,13.78s5.84,11.88,13.91,13.78v57.05c0,1.71,1.61,3.3,4,3.61,3.09.4,5.78-1.29,5.78-3.44v-56.5H872.62v56.33c0,1.71,1.61,3.3,4,3.61,3.09.4,5.78-1.29,5.78-3.44v-56.5h492.55v56.33c0,1.71,1.61,3.3,4,3.61,3.09.4,5.78-1.29,5.78-3.44V936.05c7.34-2.17,12.52-7.35,12.52-13.41S1392,911.39,1384.65,909.23ZM383.33,871c190.54-11.13,377-20.58,489.76,0-10.42,12.45-10.61,24.78,0,37-130,11-303.91,7.49-489.76,0C389.17,897.06,388.09,884.48,383.33,871Zm499,37.1v-37h492.55c-20.62,12-23.76,24.29,0,37C1279.59,931.54,1067.41,915.23,882.36,908.14Z" transform="translate(0)"/><rect class="cls-3" x="972.22" y="281.24" width="2" height="409.1" transform="translate(-10.45 21.53) rotate(-1.26)"/><path class="cls-6" d="M1047.05,224.45c11.91-3.14,23-8.62,22.68-14-.44-6.44-17-10.75-31.25-11.4,10.77-8.42,20.66-20.06,17.63-25.33-2.78-4.84-15.71-3-27.65,1.3,7.06-10.1,12-21.48,8.25-25.37-4.71-4.85-21.43,3.52-32.84,12.78,2.22-14.42,1.1-32.62-5.37-34.26-5.41-1.38-13.07,9.2-18.33,20.74-2.32-12.11-7-23.59-12.45-23.59-7.73,0-14,23.31-14,38.5q0,1.28.06,2.43c-.78-.9-1.67-1.84-2.68-2.82-10.9-10.58-32-22.33-37.37-16.78C910,150.51,914.91,161.89,922,172c-11.93-4.26-24.87-6.14-27.65-1.3-3.73,6.5,12.24,22.74,25.22,30.61-.78-.09-1.6-.17-2.47-.23-15.16-1-38.84,3.63-39.37,11.35-.37,5.41,10.77,10.89,22.69,14-11.86,4.46-22.95,11.38-21.94,16.87,1.22,6.67,19.84,9,34.48,7.64-10.93,10.49-22.8,29.29-17.85,34.8,3.63,4,15.32-.14,25.88-6.5-5.07,11.62-7.82,24.39-3.18,27.5,6.13,4.1,23-10.18,31.81-22.46-.9,15,2.69,35.67,9.83,36.49,5.39.61,11.37-10.27,15.05-22,3.91,12.05,10.33,23.44,15.86,22.69,7.19-1,10.33-22.14,9-37.18,9.15,11.77,24.54,24.37,30.35,20.49,4.64-3.11,1.88-15.88-3.18-27.5,10.55,6.36,22.24,10.54,25.87,6.5,5-5.51-6.91-24.31-17.85-34.8,14.64,1.36,33.26-1,34.48-7.64,1-5.49-10.07-12.41-21.93-16.87ZM982.89,267c-3.06.42-5.86,1-8,2.54-2.26-2.25-5.57-2.93-9.24-3.35-4.12-.47-7.85-.51-10.71,1.86-1-2.9-3.6-5-6.59-7-2.57-1.72-5.06-3.13-7.67-3.4-.2-3.18-2.22-5.88-4.69-8.64a22.69,22.69,0,0,0-4.9-4.37c2.52-3.07,2.23-6.95,1.45-11.22-.56-3-1.28-5.81-2.9-7.87,2.14-2.36,2.67-5.69,2.92-9.38.28-4,.17-7.68-2.16-10.4,6,.76,8.91-3,11.6-7.67,1.54-2.68,2.78-5.26,2.88-7.88,3.16-.42,5.72-2.62,8.29-5.27,2.2-2.27,4.08-4.51,4.78-7.09,2.52,2.11,6,2.44,9.76,2.44s7.06-.31,9.56-2.28c1.94,1.75,4.66,2.66,7.65,3.43s5.56,1.21,8,.72a20.63,20.63,0,0,0,4.31,5.78c2.58,2.65,5.14,4.85,8.3,5.27.09,2.62,1.33,5.2,2.87,7.88,1.81,3.15,3.72,5.88,6.6,7.1a24.44,24.44,0,0,0-.16,6c.25,3.69.78,7,2.93,9.38-1.62,2.06-2.35,4.83-2.91,7.87-.78,4.27-1.07,8.15,1.46,11.22a22.46,22.46,0,0,0-4.9,4.37c-2.48,2.76-4.5,5.46-4.7,8.64-2.6.27-5.1,1.68-7.66,3.4-3.51,2.35-6.44,4.78-7,8.56C989.45,266.32,986.3,266.49,982.89,267Z" transform="translate(0)"/><circle class="cls-3" cx="974.72" cy="224.29" r="50"/><polygon class="cls-6" points="648 524.86 648 344.14 804.5 253.79 961 344.14 961 524.86 804.5 615.21 648 524.86"/><path class="cls-9" d="M804.5,257.25,958,345.88V523.12L804.5,611.75,651,523.12V345.88l153.5-88.63m0-6.92L645,342.41V526.59l159.5,92.08L964,526.59V342.41L804.5,250.33Z" transform="translate(0)"/><polygon class="cls-6" points="816 814.85 816 634.15 972.5 543.79 1129 634.15 1129 814.85 972.5 905.21 816 814.85"/><path class="cls-9" d="M972.5,547.25,1126,635.88V813.12L972.5,901.75,819,813.12V635.88l153.5-88.63m0-6.92L813,632.41V816.59l159.5,92.08L1132,816.59V632.41L972.5,540.33Z" transform="translate(0)"/><polygon class="cls-6" points="981 525.86 981 345.14 1137.5 254.79 1294 345.14 1294 525.86 1137.5 616.21 981 525.86"/><path class="cls-9" d="M1137.5,258.25,1291,346.88V524.12l-153.5,88.63L984,524.12V346.88l153.5-88.63m0-6.92L978,343.41V527.59l159.5,92.08L1297,527.59V343.41l-159.5-92.08Z" transform="translate(0)"/></svg>